<svg width="986" height="56" viewBox="0 0 986 56" fill="none" xmlns="http://www.w3.org/2000/svg">
<rect x="816" width="170" height="56" rx="28" fill="#360490"/>
<path d="M858.885 24.2756C858.809 23.6032 858.497 23.0824 857.947 22.7131C857.398 22.339 856.707 22.152 855.873 22.152C855.277 22.152 854.761 22.2467 854.325 22.4361C853.89 22.6207 853.551 22.8764 853.309 23.2031C853.073 23.5251 852.954 23.892 852.954 24.304C852.954 24.6496 853.035 24.9479 853.196 25.1989C853.362 25.4498 853.577 25.6605 853.842 25.831C854.112 25.9967 854.401 26.1364 854.709 26.25C855.016 26.3589 855.312 26.4489 855.596 26.5199L857.017 26.8892C857.481 27.0028 857.957 27.1567 858.444 27.3509C858.932 27.545 859.384 27.8007 859.801 28.1179C860.218 28.4351 860.554 28.8281 860.809 29.2969C861.07 29.7656 861.2 30.3267 861.2 30.9801C861.2 31.804 860.987 32.5355 860.561 33.1747C860.14 33.8139 859.526 34.3182 858.721 34.6875C857.921 35.0568 856.953 35.2415 855.817 35.2415C854.728 35.2415 853.785 35.0687 852.99 34.723C852.194 34.3774 851.572 33.8873 851.122 33.2528C850.672 32.6136 850.424 31.8561 850.376 30.9801H852.578C852.621 31.5057 852.791 31.9437 853.089 32.294C853.392 32.6397 853.778 32.8977 854.247 33.0682C854.72 33.2339 855.239 33.3168 855.802 33.3168C856.423 33.3168 856.974 33.2197 857.457 33.0256C857.945 32.8267 858.328 32.5521 858.608 32.2017C858.887 31.8466 859.027 31.4323 859.027 30.9588C859.027 30.5279 858.904 30.1752 858.657 29.9006C858.416 29.6259 858.087 29.3987 857.67 29.2188C857.258 29.0388 856.792 28.8802 856.271 28.7429L854.552 28.2741C853.388 27.9569 852.464 27.4905 851.782 26.875C851.105 26.2595 850.767 25.4451 850.767 24.4318C850.767 23.5937 850.994 22.8622 851.449 22.2372C851.903 21.6122 852.519 21.1269 853.295 20.7812C854.072 20.4309 854.948 20.2557 855.923 20.2557C856.908 20.2557 857.777 20.4285 858.53 20.7741C859.287 21.1198 859.884 21.5956 860.319 22.2017C860.755 22.803 860.982 23.4943 861.001 24.2756H858.885ZM868.247 35.2202C867.191 35.2202 866.282 34.9811 865.52 34.5028C864.762 34.0199 864.18 33.3546 863.773 32.5071C863.366 31.6596 863.162 30.6889 863.162 29.5952C863.162 28.4872 863.37 27.5095 863.787 26.6619C864.204 25.8097 864.791 25.1444 865.548 24.6662C866.306 24.188 867.199 23.9489 868.226 23.9489C869.055 23.9489 869.793 24.1027 870.442 24.4105C871.091 24.7135 871.614 25.1397 872.012 25.6889C872.414 26.2382 872.653 26.8797 872.729 27.6136H870.662C870.548 27.1023 870.288 26.6619 869.881 26.2926C869.478 25.9233 868.939 25.7386 868.262 25.7386C867.67 25.7386 867.151 25.8949 866.706 26.2074C866.266 26.5152 865.923 26.9555 865.676 27.5284C865.43 28.0966 865.307 28.7689 865.307 29.5455C865.307 30.3409 865.428 31.0275 865.669 31.6051C865.911 32.1828 866.252 32.6302 866.692 32.9474C867.137 33.2647 867.66 33.4233 868.262 33.4233C868.664 33.4233 869.029 33.3499 869.355 33.2031C869.687 33.0516 869.964 32.8362 870.186 32.5568C870.414 32.2775 870.572 31.9413 870.662 31.5483H872.729C872.653 32.2538 872.423 32.8835 872.04 33.4375C871.656 33.9915 871.143 34.4271 870.499 34.7443C869.86 35.0616 869.109 35.2202 868.247 35.2202ZM879.595 35.2202C878.572 35.2202 877.68 34.9858 876.917 34.517C876.155 34.0483 875.563 33.3925 875.142 32.5497C874.72 31.7069 874.51 30.7221 874.51 29.5952C874.51 28.4635 874.72 27.474 875.142 26.6264C875.563 25.7789 876.155 25.1207 876.917 24.652C877.68 24.1832 878.572 23.9489 879.595 23.9489C880.618 23.9489 881.51 24.1832 882.273 24.652C883.035 25.1207 883.627 25.7789 884.048 26.6264C884.47 27.474 884.68 28.4635 884.68 29.5952C884.68 30.7221 884.47 31.7069 884.048 32.5497C883.627 33.3925 883.035 34.0483 882.273 34.517C881.51 34.9858 880.618 35.2202 879.595 35.2202ZM879.602 33.4375C880.265 33.4375 880.814 33.2623 881.25 32.9119C881.685 32.5616 882.007 32.0952 882.216 31.5128C882.429 30.9304 882.535 30.2888 882.535 29.5881C882.535 28.892 882.429 28.2528 882.216 27.6705C882.007 27.0833 881.685 26.6122 881.25 26.2571C880.814 25.902 880.265 25.7244 879.602 25.7244C878.934 25.7244 878.381 25.902 877.94 26.2571C877.505 26.6122 877.18 27.0833 876.967 27.6705C876.759 28.2528 876.655 28.892 876.655 29.5881C876.655 30.2888 876.759 30.9304 876.967 31.5128C877.18 32.0952 877.505 32.5616 877.94 32.9119C878.381 33.2623 878.934 33.4375 879.602 33.4375ZM887.051 35V24.0909H889.103V25.8239H889.217C889.416 25.2367 889.766 24.7751 890.268 24.4389C890.775 24.098 891.347 23.9276 891.987 23.9276C892.119 23.9276 892.276 23.9323 892.455 23.9418C892.64 23.9512 892.785 23.9631 892.889 23.9773V26.0085C892.803 25.9848 892.652 25.9588 892.434 25.9304C892.216 25.8973 891.999 25.8807 891.781 25.8807C891.279 25.8807 890.831 25.9872 890.438 26.2003C890.05 26.4086 889.742 26.6998 889.515 27.0739C889.288 27.4432 889.174 27.8646 889.174 28.3381V35H887.051ZM899.037 35.2202C897.963 35.2202 897.037 34.9905 896.26 34.5312C895.489 34.0672 894.892 33.4162 894.471 32.5781C894.054 31.7353 893.846 30.7481 893.846 29.6165C893.846 28.4991 894.054 27.5142 894.471 26.6619C894.892 25.8097 895.479 25.1444 896.232 24.6662C896.99 24.188 897.875 23.9489 898.888 23.9489C899.504 23.9489 900.1 24.0507 900.678 24.2543C901.256 24.4579 901.774 24.7775 902.233 25.2131C902.693 25.6487 903.055 26.2145 903.32 26.9105C903.585 27.6018 903.718 28.4422 903.718 29.4318V30.1847H895.046V28.5938H901.637C901.637 28.035 901.523 27.5402 901.296 27.1094C901.069 26.6738 900.749 26.3305 900.337 26.0795C899.93 25.8286 899.452 25.7031 898.903 25.7031C898.306 25.7031 897.785 25.8499 897.34 26.1435C896.9 26.4323 896.559 26.8111 896.317 27.2798C896.081 27.7438 895.962 28.2481 895.962 28.7926V30.0355C895.962 30.7647 896.09 31.3849 896.346 31.8963C896.606 32.4077 896.968 32.7983 897.432 33.0682C897.896 33.3333 898.439 33.4659 899.059 33.4659C899.461 33.4659 899.828 33.4091 900.16 33.2955C900.491 33.1771 900.778 33.0019 901.019 32.7699C901.26 32.5379 901.445 32.2514 901.573 31.9105L903.583 32.2727C903.422 32.8646 903.133 33.383 902.716 33.8281C902.305 34.2685 901.786 34.6117 901.161 34.858C900.541 35.0994 899.833 35.2202 899.037 35.2202Z" fill="white"/>
<path d="M922.632 34.9945H924.485V33.6714C925.367 33.5126 926.125 33.1686 926.761 32.6393C927.396 32.1101 927.713 31.325 927.713 30.2842C927.713 29.5432 927.501 28.864 927.078 28.2466C926.655 27.6291 925.808 27.091 924.538 26.6324C923.479 26.2795 922.747 25.9708 922.341 25.7062C921.936 25.4415 921.733 25.0799 921.733 24.6212C921.733 24.1625 921.896 23.8009 922.222 23.5362C922.549 23.2716 923.02 23.1393 923.638 23.1393C924.202 23.1393 924.644 23.276 924.961 23.5495C925.279 23.8229 925.508 24.1625 925.649 24.5683L927.343 23.8803C927.149 23.2628 926.791 22.7247 926.271 22.266C925.751 21.8074 925.173 21.5516 924.538 21.4986V20.1755H922.685V21.4986C921.803 21.6927 921.115 22.0808 920.621 22.663C920.127 23.2452 919.88 23.8979 919.88 24.6212C919.88 25.4504 920.123 26.1207 920.608 26.6324C921.093 27.144 921.856 27.585 922.897 27.9555C924.008 28.3612 924.78 28.7229 925.212 29.0404C925.645 29.358 925.861 29.7726 925.861 30.2842C925.861 30.8664 925.653 31.2942 925.239 31.5676C924.824 31.8411 924.326 31.9778 923.744 31.9778C923.162 31.9778 922.646 31.7969 922.196 31.4353C921.746 31.0736 921.415 30.5312 921.203 29.8079L919.457 30.4959C919.704 31.3427 920.088 32.0263 920.608 32.5467C921.128 33.0671 921.803 33.4244 922.632 33.6185V34.9945ZM923.585 38.17C922.121 38.17 920.745 37.8921 919.457 37.3364C918.169 36.7807 917.049 36.0265 916.096 35.0739C915.143 34.1212 914.389 33.001 913.834 31.7132C913.278 30.4253 913 29.0493 913 27.585C913 26.1207 913.278 24.7447 913.834 23.4569C914.389 22.169 915.143 21.0488 916.096 20.0961C917.049 19.1435 918.169 18.3893 919.457 17.8336C920.745 17.2779 922.121 17 923.585 17C925.049 17 926.425 17.2779 927.713 17.8336C929.001 18.3893 930.121 19.1435 931.074 20.0961C932.027 21.0488 932.781 22.169 933.336 23.4569C933.892 24.7447 934.17 26.1207 934.17 27.585C934.17 29.0493 933.892 30.4253 933.336 31.7132C932.781 33.001 932.027 34.1212 931.074 35.0739C930.121 36.0265 929.001 36.7807 927.713 37.3364C926.425 37.8921 925.049 38.17 923.585 38.17Z" fill="white"/>
<path d="M949.361 20.4545V35H947.159V22.6562H947.074L943.594 24.929V22.8267L947.223 20.4545H949.361Z" fill="white"/>
</svg>
