<svg width="170" height="56" viewBox="0 0 170 56" fill="none" xmlns="http://www.w3.org/2000/svg">
<rect width="170" height="56" rx="28" fill="#360490"/>
<path d="M42.8848 24.2756C42.809 23.6032 42.4965 23.0824 41.9473 22.7131C41.398 22.339 40.7067 22.152 39.8734 22.152C39.2768 22.152 38.7607 22.2467 38.3251 22.4361C37.8895 22.6207 37.551 22.8764 37.3095 23.2031C37.0727 23.5251 36.9544 23.892 36.9544 24.304C36.9544 24.6496 37.0349 24.9479 37.1958 25.1989C37.3616 25.4498 37.577 25.6605 37.8422 25.831C38.112 25.9967 38.4009 26.1364 38.7086 26.25C39.0164 26.3589 39.3123 26.4489 39.5964 26.5199L41.0169 26.8892C41.4809 27.0028 41.9567 27.1567 42.4444 27.3509C42.9321 27.545 43.3843 27.8007 43.801 28.1179C44.2176 28.4351 44.5538 28.8281 44.8095 29.2969C45.0699 29.7656 45.2001 30.3267 45.2001 30.9801C45.2001 31.804 44.987 32.5355 44.5609 33.1747C44.1395 33.8139 43.5263 34.3182 42.7214 34.6875C41.9212 35.0568 40.9529 35.2415 39.8166 35.2415C38.7276 35.2415 37.7853 35.0687 36.9899 34.723C36.1944 34.3774 35.5718 33.8873 35.122 33.2528C34.6722 32.6136 34.4236 31.8561 34.3762 30.9801H36.5779C36.6206 31.5057 36.791 31.9437 37.0893 32.294C37.3923 32.6397 37.7782 32.8977 38.247 33.0682C38.7205 33.2339 39.2389 33.3168 39.8024 33.3168C40.4226 33.3168 40.9743 33.2197 41.4572 33.0256C41.9449 32.8267 42.3284 32.5521 42.6078 32.2017C42.8871 31.8466 43.0268 31.4323 43.0268 30.9588C43.0268 30.5279 42.9037 30.1752 42.6575 29.9006C42.416 29.6259 42.0869 29.3987 41.6703 29.2188C41.2583 29.0388 40.792 28.8802 40.2711 28.7429L38.5524 28.2741C37.3876 27.9569 36.4643 27.4905 35.7825 26.875C35.1054 26.2595 34.7669 25.4451 34.7669 24.4318C34.7669 23.5937 34.9941 22.8622 35.4487 22.2372C35.9032 21.6122 36.5188 21.1269 37.2953 20.7812C38.0718 20.4309 38.9477 20.2557 39.9231 20.2557C40.908 20.2557 41.7768 20.4285 42.5297 20.7741C43.2872 21.1198 43.8838 21.5956 44.3194 22.2017C44.755 22.803 44.9823 23.4943 45.0012 24.2756H42.8848ZM52.2473 35.2202C51.1915 35.2202 50.2824 34.9811 49.5201 34.5028C48.7625 34.0199 48.1801 33.3546 47.7729 32.5071C47.3657 31.6596 47.1621 30.6889 47.1621 29.5952C47.1621 28.4872 47.3704 27.5095 47.7871 26.6619C48.2038 25.8097 48.7909 25.1444 49.5485 24.6662C50.306 24.188 51.1986 23.9489 52.226 23.9489C53.0546 23.9489 53.7933 24.1027 54.4419 24.4105C55.0906 24.7135 55.6138 25.1397 56.0115 25.6889C56.414 26.2382 56.6531 26.8797 56.7289 27.6136H54.6621C54.5485 27.1023 54.2881 26.6619 53.8809 26.2926C53.4784 25.9233 52.9386 25.7386 52.2615 25.7386C51.6697 25.7386 51.1512 25.8949 50.7061 26.2074C50.2658 26.5152 49.9225 26.9555 49.6763 27.5284C49.4301 28.0966 49.307 28.7689 49.307 29.5455C49.307 30.3409 49.4277 31.0275 49.6692 31.6051C49.9107 32.1828 50.2516 32.6302 50.6919 32.9474C51.137 33.2647 51.6602 33.4233 52.2615 33.4233C52.664 33.4233 53.0286 33.3499 53.3553 33.2031C53.6867 33.0516 53.9637 32.8362 54.1863 32.5568C54.4135 32.2775 54.5721 31.9413 54.6621 31.5483H56.7289C56.6531 32.2538 56.4235 32.8835 56.04 33.4375C55.6564 33.9915 55.1427 34.4271 54.4988 34.7443C53.8596 35.0616 53.1091 35.2202 52.2473 35.2202ZM63.595 35.2202C62.5723 35.2202 61.6797 34.9858 60.9174 34.517C60.1551 34.0483 59.5633 33.3925 59.1419 32.5497C58.7205 31.7069 58.5098 30.7221 58.5098 29.5952C58.5098 28.4635 58.7205 27.474 59.1419 26.6264C59.5633 25.7789 60.1551 25.1207 60.9174 24.652C61.6797 24.1832 62.5723 23.9489 63.595 23.9489C64.6177 23.9489 65.5102 24.1832 66.2725 24.652C67.0349 25.1207 67.6267 25.7789 68.0481 26.6264C68.4695 27.474 68.6802 28.4635 68.6802 29.5952C68.6802 30.7221 68.4695 31.7069 68.0481 32.5497C67.6267 33.3925 67.0349 34.0483 66.2725 34.517C65.5102 34.9858 64.6177 35.2202 63.595 35.2202ZM63.6021 33.4375C64.265 33.4375 64.8142 33.2623 65.2498 32.9119C65.6854 32.5616 66.0074 32.0952 66.2157 31.5128C66.4288 30.9304 66.5353 30.2888 66.5353 29.5881C66.5353 28.892 66.4288 28.2528 66.2157 27.6705C66.0074 27.0833 65.6854 26.6122 65.2498 26.2571C64.8142 25.902 64.265 25.7244 63.6021 25.7244C62.9345 25.7244 62.3805 25.902 61.9402 26.2571C61.5046 26.6122 61.1802 27.0833 60.9672 27.6705C60.7588 28.2528 60.6547 28.892 60.6547 29.5881C60.6547 30.2888 60.7588 30.9304 60.9672 31.5128C61.1802 32.0952 61.5046 32.5616 61.9402 32.9119C62.3805 33.2623 62.9345 33.4375 63.6021 33.4375ZM71.0506 35V24.0909H73.1032V25.8239H73.2168C73.4157 25.2367 73.766 24.7751 74.2679 24.4389C74.7746 24.098 75.3475 23.9276 75.9867 23.9276C76.1193 23.9276 76.2755 23.9323 76.4554 23.9418C76.6401 23.9512 76.7845 23.9631 76.8887 23.9773V26.0085C76.8034 25.9848 76.6519 25.9588 76.4341 25.9304C76.2163 25.8973 75.9985 25.8807 75.7807 25.8807C75.2788 25.8807 74.8314 25.9872 74.4384 26.2003C74.0501 26.4086 73.7424 26.6998 73.5151 27.0739C73.2878 27.4432 73.1742 27.8646 73.1742 28.3381V35H71.0506ZM83.0375 35.2202C81.9627 35.2202 81.037 34.9905 80.2605 34.5312C79.4887 34.0672 78.8921 33.4162 78.4707 32.5781C78.054 31.7353 77.8457 30.7481 77.8457 29.6165C77.8457 28.4991 78.054 27.5142 78.4707 26.6619C78.8921 25.8097 79.4792 25.1444 80.2321 24.6662C80.9896 24.188 81.8751 23.9489 82.8883 23.9489C83.5038 23.9489 84.1004 24.0507 84.6781 24.2543C85.2557 24.4579 85.7742 24.7775 86.2335 25.2131C86.6928 25.6487 87.055 26.2145 87.3201 26.9105C87.5853 27.6018 87.7179 28.4422 87.7179 29.4318V30.1847H79.046V28.5938H85.6369C85.6369 28.035 85.5233 27.5402 85.296 27.1094C85.0687 26.6738 84.7491 26.3305 84.3372 26.0795C83.93 25.8286 83.4518 25.7031 82.9025 25.7031C82.3059 25.7031 81.7851 25.8499 81.34 26.1435C80.8997 26.4323 80.5588 26.8111 80.3173 27.2798C80.0806 27.7438 79.9622 28.2481 79.9622 28.7926V30.0355C79.9622 30.7647 80.09 31.3849 80.3457 31.8963C80.6061 32.4077 80.9683 32.7983 81.4324 33.0682C81.8964 33.3333 82.4385 33.4659 83.0588 33.4659C83.4612 33.4659 83.8282 33.4091 84.1596 33.2955C84.4911 33.1771 84.7775 33.0019 85.019 32.7699C85.2605 32.5379 85.4451 32.2514 85.573 31.9105L87.5829 32.2727C87.4219 32.8646 87.1331 33.383 86.7164 33.8281C86.3045 34.2685 85.786 34.6117 85.161 34.858C84.5408 35.0994 83.8329 35.2202 83.0375 35.2202Z" fill="white"/>
<path d="M106.632 34.9945H108.485V33.6714C109.367 33.5126 110.125 33.1686 110.761 32.6393C111.396 32.1101 111.713 31.325 111.713 30.2842C111.713 29.5432 111.501 28.864 111.078 28.2466C110.655 27.6291 109.808 27.091 108.538 26.6324C107.479 26.2795 106.747 25.9708 106.341 25.7062C105.936 25.4415 105.733 25.0799 105.733 24.6212C105.733 24.1625 105.896 23.8009 106.222 23.5362C106.549 23.2716 107.02 23.1393 107.638 23.1393C108.202 23.1393 108.644 23.276 108.961 23.5495C109.279 23.8229 109.508 24.1625 109.649 24.5683L111.343 23.8803C111.149 23.2628 110.791 22.7247 110.271 22.266C109.751 21.8074 109.173 21.5516 108.538 21.4986V20.1755H106.685V21.4986C105.803 21.6927 105.115 22.0808 104.621 22.663C104.127 23.2452 103.88 23.8979 103.88 24.6212C103.88 25.4504 104.123 26.1207 104.608 26.6324C105.093 27.144 105.856 27.585 106.897 27.9555C108.008 28.3612 108.78 28.7229 109.212 29.0404C109.645 29.358 109.861 29.7726 109.861 30.2842C109.861 30.8664 109.653 31.2942 109.239 31.5676C108.824 31.8411 108.326 31.9778 107.744 31.9778C107.162 31.9778 106.646 31.7969 106.196 31.4353C105.746 31.0736 105.415 30.5312 105.203 29.8079L103.457 30.4959C103.704 31.3427 104.088 32.0263 104.608 32.5467C105.128 33.0671 105.803 33.4244 106.632 33.6185V34.9945ZM107.585 38.17C106.121 38.17 104.745 37.8921 103.457 37.3364C102.169 36.7807 101.049 36.0265 100.096 35.0739C99.1435 34.1212 98.3893 33.001 97.8336 31.7132C97.2779 30.4253 97 29.0493 97 27.585C97 26.1207 97.2779 24.7447 97.8336 23.4569C98.3893 22.169 99.1435 21.0488 100.096 20.0961C101.049 19.1435 102.169 18.3893 103.457 17.8336C104.745 17.2779 106.121 17 107.585 17C109.049 17 110.425 17.2779 111.713 17.8336C113.001 18.3893 114.121 19.1435 115.074 20.0961C116.027 21.0488 116.781 22.169 117.336 23.4569C117.892 24.7447 118.17 26.1207 118.17 27.585C118.17 29.0493 117.892 30.4253 117.336 31.7132C116.781 33.001 116.027 34.1212 115.074 35.0739C114.121 36.0265 113.001 36.7807 111.713 37.3364C110.425 37.8921 109.049 38.17 107.585 38.17Z" fill="white"/>
<path d="M133.361 20.4545V35H131.159V22.6562H131.074L127.594 24.929V22.8267L131.223 20.4545H133.361Z" fill="white"/>
</svg>
